PathFileType	4	(X/Y/Z)	C:/Users/opensim2020/Desktop/walking_exp_matlab/subject02_walking09_straight_03.trc																																																																																																																												
DataRate	CameraRate	NumFrames	NumMarkers	Units	OrigDataRate	OrigDataStartFrame	OrigNumFrames																																																																																																																								
100	100	9	42	mm	100	2374	262																																																																																																																								
Frame#	Time	LFHD			RFHD			LBHD			RBHD			C7			T10			CLAV			STRN			RBAK			LSHO			LUPA			LELB			LFRM			LWRA			LWRB			LFIN			RSHO			RUPA			RELB			RFRM			RWRA			RWRB			RFIN			LASI			RASI			LPSI			RPSI			LTHI			LKNE			LTIB			LANK			LHEE			LTOE			RTHI			RKNE			RTIB			RANK			RHEE			RTOE			*39			*40			*41		
		X1	Y1	Z1	X2	Y2	Z2	X3	Y3	Z3	X4	Y4	Z4	X5	Y5	Z5	X6	Y6	Z6	X7	Y7	Z7	X8	Y8	Z8	X9	Y9	Z9	X10	Y10	Z10	X11	Y11	Z11	X12	Y12	Z12	X13	Y13	Z13	X14	Y14	Z14	X15	Y15	Z15	X16	Y16	Z16	X17	Y17	Z17	X18	Y18	Z18	X19	Y19	Z19	X20	Y20	Z20	X21	Y21	Z21	X22	Y22	Z22	X23	Y23	Z23	X24	Y24	Z24	X25	Y25	Z25	X26	Y26	Z26	X27	Y27	Z27	X28	Y28	Z28	X29	Y29	Z29	X30	Y30	Z30	X31	Y31	Z31	X32	Y32	Z32	X33	Y33	Z33	X34	Y34	Z34	X35	Y35	Z35	X36	Y36	Z36	X37	Y37	Z37	X38	Y38	Z38	X39	Y39	Z39	X40	Y40	Z40	X41	Y41	Z41	X42	Y42	Z42
																																																																																																																															
197	1.96	472.71155	1767.59485	-1001.65417	457.30063	1746.51758	-859.01569	373.26089	1657.28662	-1028.32837	347.07205	1631.05383	-889.69843	328.8876	1532.97205	-946.26947	270.4982	1261.01941	-934.30109	465.98685	1464.3418	-969.02167	514.35883	1289.42493	-961.56458	276.26807	1364.6626	-872.20264	382.63696	1506.18054	-1131.92969	333.20596	1310.41138	-1210.18652	307.59448	1171.92517	-1220.13049	296.40961	1040.68433	-1235.77197	337.08307	908.14215	-1212.32825	288.71567	917.76624	-1240.07507	298.52728	851.60907	-1246.14587	429.02872	1501.56897	-769.49542	436.5415	1309.48706	-679.65582	474.70316	1165.61853	-667.6297	532.13403	1058.63599	-660.60931	605.93646	949.19641	-693.84619	566.78259	933.06555	-655.24866	619.10443	883.164	-661.05737	492.62396	1000.17688	-1085.75671	504.0546	980.83752	-828.84106	286.34354	1040.88049	-994.88049	286.64377	1040.20349	-880.32898	475.79129	696.85168	-1164.04443	499.51517	498.76462	-1146.3219	453.00983	310.55371	-1144.35364	474.85931	86.08308	-1131.78406	456.91711	55.21872	-1073.96899	620.487	55.67437	-1181.92163	413.8533	674.58374	-775.65613	396.26291	465.88235	-824.58838	342.2717	284.23456	-824.13568	312.41833	93.66787	-870.20477	275.92511	41.07319	-927.39386	461.44604	39.41198	-848.42841	343.97403	1796.43323	-928.88727	2845.25684	1034.01819	-3360.29639	NaN	NaN	NaN
198	1.97	480.74881	1766.82251	-1002.8808	465.26276	1745.95471	-860.33325	381.16217	1656.59705	-1029.23755	354.85361	1630.78894	-890.53918	336.39505	1532.38782	-947.08325	277.56177	1260.64587	-935.42816	473.50998	1463.64465	-969.47986	521.6001	1288.69592	-961.59851	283.51755	1364.27991	-873.11609	390.22986	1505.26086	-1132.547	339.89374	1309.91187	-1210.78601	313.25198	1171.52319	-1220.13037	301.1257	1040.50476	-1235.74744	341.02487	907.5097	-1212.78271	292.47406	917.34027	-1240.13525	301.64255	851.24896	-1246.22668	436.5217	1501.10864	-770.13434	444.63089	1309.33191	-680.37543	484.02048	1165.64709	-668.05792	542.72156	1059.40149	-661.1886	617.25464	950.54834	-694.82465	578.59882	933.98505	-656.22516	631.63959	884.89374	-662.02454	500.48041	999.54242	-1086.17236	510.37442	980.41608	-829.06116	294.23624	1040.12158	-996.30676	293.23877	1039.61072	-881.70935	483.71906	696.40399	-1164.45264	508.72876	498.01581	-1146.46484	469.75192	307.96609	-1146.96875	500.80182	84.16399	-1136.1554	483.11798	51.69691	-1078.60168	648.85175	60.08118	-1183.06299	417.88885	674.20648	-776.19672	398.88177	465.28583	-824.84961	343.66461	284.35739	-824.48053	312.64465	93.82664	-870.3916	276.22162	40.89677	-927.87854	461.40979	39.39458	-848.30304	352.11435	1796.04932	-930.21033	2845.81641	1034.24829	-3357.43115	NaN	NaN	NaN
199	1.98	488.85205	1765.93567	-1004.10345	473.22638	1745.57397	-861.28674	389.0451	1655.84607	-1030.31006	362.63867	1630.38574	-891.54675	344.0079	1531.88916	-948.00061	284.64572	1260.19714	-936.63641	481.03232	1462.8446	-970.01556	528.9184	1287.84717	-961.79431	290.64893	1363.86133	-874.08624	397.80673	1504.34546	-1133.27795	346.75693	1309.1521	-1210.75781	319.21381	1170.99854	-1220.13928	306.10333	1039.88416	-1235.67712	345.21814	906.79327	-1213.33105	296.58597	917.09644	-1240.21936	304.95157	850.82935	-1246.4563	443.52609	1500.5542	-770.79413	451.944	1308.68848	-680.81171	493.14114	1165.48938	-668.47089	552.90033	1059.62878	-662.36371	628.69061	951.85455	-695.95685	590.2937	934.86237	-657.20081	643.63727	886.13269	-663.38068	508.39282	998.88428	-1086.59241	517.29163	980.1369	-829.61194	301.66489	1039.41895	-997.70337	299.9483	1038.90637	-883.22516	491.47363	695.87952	-1164.96484	517.94415	497.32825	-1146.77185	486.43173	305.78983	-1149.81335	526.33569	83.08817	-1140.42175	508.44183	49.43682	-1083.70044	676.3396	65.07123	-1183.67224	422.08722	673.8559	-776.77063	401.75476	464.94104	-825.30084	345.18399	284.41132	-824.89435	312.83322	93.99874	-870.60889	276.24969	41.10061	-928.09277	461.36536	39.33577	-848.17529	360.22946	1795.40161	-931.4173	2845.73071	1034.16223	-3357.50415	NaN	NaN	NaN
200	1.99	496.8674	1765.02625	-1005.47339	481.2164	1744.9856	-862.67566	396.9256	1655.03687	-1031.42261	370.40381	1629.91333	-892.50238	351.72513	1531.39233	-948.89978	291.90552	1259.59705	-937.94757	488.58939	1462.0675	-970.70197	536.29846	1286.99011	-962.12207	297.79068	1363.3844	-875.17694	405.71823	1503.41614	-1134.15369	353.8295	1308.37476	-1211.18579	325.4617	1170.41821	-1220.3512	311.40628	1039.604	-1236.01807	349.71567	905.98907	-1213.89453	300.83386	916.55701	-1240.37268	308.55612	850.37219	-1246.62756	450.65933	1500.17395	-771.53326	460.04767	1308.2384	-681.67261	502.173	1165.28467	-669.12878	563.25922	1060.31165	-663.16882	639.63171	953.05438	-697.27325	601.64655	935.60565	-658.34088	655.55927	887.7514	-664.49658	516.40637	998.19702	-1087.02759	523.2973	979.51086	-829.62653	309.15771	1038.69568	-999.03546	306.74652	1038.14063	-884.82666	499.13547	695.31421	-1165.60999	527.09076	496.56512	-1147.12817	503.00983	304.09656	-1152.49731	551.32727	82.63283	-1144.32971	533.1778	47.83857	-1088.76172	703.04553	70.39308	-1183.72559	426.42239	673.3902	-777.35358	405.00671	464.72693	-825.72351	346.70349	284.53143	-825.20807	313.14777	94.25163	-870.74731	276.46387	41.14446	-928.31458	461.35904	39.31002	-848.06586	368.24341	1795.2113	-933.01544	2845.17749	1034.16785	-3360.36938	NaN	NaN	NaN
201	2	504.93286	1764.02454	-1006.82654	489.14771	1744.19666	-864.19672	404.81894	1654.17725	-1032.56738	378.15646	1629.32935	-893.7879	359.35367	1530.74487	-950.08649	299.26929	1258.93567	-939.46112	496.20093	1461.20044	-971.47614	543.68512	1286.09961	-962.55603	305.01819	1362.78027	-876.46332	413.61942	1502.39392	-1135.12854	361.07907	1307.55078	-1212.11536	332.02145	1169.88428	-1220.69775	316.93399	1038.81848	-1236.04089	354.47375	905.13269	-1214.55261	305.54379	916.19012	-1240.68018	312.46991	849.82867	-1246.9054	457.74493	1499.23804	-772.44696	468.21591	1307.52087	-682.61774	510.99438	1164.94556	-669.89746	572.93237	1060.46277	-663.73401	650.52716	954.20563	-698.42383	612.71576	936.23615	-659.62878	667.28754	889.00049	-665.72815	524.49628	997.43073	-1087.4165	529.80548	978.89514	-829.88464	316.9198	1037.9386	-1000.70306	313.57861	1037.29224	-886.54388	506.80579	694.60718	-1166.26074	536.24738	495.88919	-1147.72522	519.27545	302.75705	-1155.18933	575.61664	82.87281	-1147.91846	557.21765	47.00772	-1092.87292	728.71228	75.83893	-1183.34241	430.92743	672.91925	-777.95837	408.14368	464.31921	-826.12646	348.517	284.63007	-825.56506	313.43524	94.49702	-870.96851	276.51819	41.40377	-928.54968	461.34927	39.29231	-847.9693	376.31015	1794.45081	-934.51532	2845.16943	1034.22083	-3360.25122	NaN	NaN	NaN
202	2.01	512.94281	1762.98523	-1008.32947	497.17545	1743.59143	-865.43213	412.69083	1653.27747	-1033.87354	386.00293	1628.69324	-894.99194	366.96802	1530.03223	-951.38855	306.72385	1258.17651	-941.02698	503.82672	1460.24268	-972.34039	551.11279	1285.17285	-963.08752	312.2608	1362.10938	-877.91217	421.91257	1501.29712	-1136.17249	368.55637	1306.71191	-1212.95898	338.72696	1169.12537	-1221.10571	322.76709	1038.45886	-1236.82507	359.48657	904.19995	-1215.23767	310.46262	915.60333	-1240.92346	316.73495	849.17615	-1247.20837	464.96118	1498.7616	-773.34009	475.20789	1306.84253	-683.7132	519.70386	1164.55005	-670.78723	582.65906	1060.56177	-665.02094	661.13251	955.21674	-699.69086	623.47076	936.7793	-660.97412	678.6524	890.2113	-667.00531	532.93579	996.57764	-1087.84473	536.45782	978.15234	-830.02606	324.68173	1037.14441	-1002.31329	320.50845	1036.42224	-888.28308	514.55548	693.8125	-1167.03857	545.51941	495.19452	-1148.29663	535.10388	301.7446	-1157.70776	599.05719	83.5583	-1151.03345	580.54596	46.86644	-1096.73926	753.30994	81.09451	-1182.60986	435.70389	672.3869	-778.66144	411.33893	463.8652	-826.67633	350.31625	284.67947	-825.95673	313.78265	94.65429	-871.22546	276.56219	41.59409	-928.76117	461.34024	39.26437	-847.8761	384.24072	1793.94861	-936.24457	2845.1936	1033.77563	-3360.42822	NaN	NaN	NaN
203	2.02	520.98737	1761.9408	-1009.87805	505.15588	1742.60168	-867.08221	420.56369	1652.3053	-1035.23767	393.7287	1628.02698	-896.38104	374.67734	1529.18628	-952.7879	314.10995	1257.37292	-942.62012	511.5098	1459.2738	-973.37122	558.65735	1284.22009	-963.71985	319.49414	1361.39441	-879.95605	430.12564	1500.36694	-1137.48303	376.20639	1305.76135	-1213.86267	345.65848	1168.30322	-1221.63904	328.81573	1037.46106	-1236.82373	364.91879	903.09857	-1216.22595	315.62564	914.83972	-1241.31152	321.34906	848.47217	-1247.50427	471.85565	1497.83411	-774.39233	482.93857	1306.10425	-684.82489	528.2135	1164.11279	-671.78809	591.96722	1060.53418	-666.48138	671.54156	956.06677	-700.92358	634.06757	937.19604	-662.33698	689.53857	891.24792	-668.52545	541.23651	995.65118	-1088.08447	543.20258	977.2619	-830.14984	332.52502	1036.32703	-1004.02942	327.51083	1035.52759	-890.03125	522.4151	692.99731	-1167.91467	554.90704	494.55756	-1148.83582	550.5722	301.01202	-1159.99707	621.47266	84.77555	-1153.95227	603.13953	47.20981	-1100.16003	776.59619	86.00018	-1181.93359	440.58713	671.81305	-779.40228	414.91132	463.39792	-827.34216	352.18976	284.76343	-826.45624	314.12326	94.88279	-871.45404	276.66513	41.72044	-928.92047	461.46692	39.2219	-847.75232	392.25858	1793.19592	-937.88727	2845.927	1034.11462	-3357.20776	NaN	NaN	NaN
204	2.03	529.00562	1760.85095	-1011.56555	512.96216	1741.68103	-868.96448	428.43726	1651.3335	-1036.76489	401.84247	1627.33862	-897.59314	382.38629	1528.35657	-954.37659	321.61853	1256.51086	-944.31744	519.22858	1458.27026	-974.47229	566.18604	1283.16016	-964.44977	326.85928	1360.55859	-881.40424	438.3013	1499.27783	-1138.81445	383.97565	1304.68884	-1214.49475	352.73163	1167.41846	-1222.27734	335.17776	1036.69336	-1237.4054	370.57712	902.03461	-1216.93481	321.31516	914.25641	-1241.82593	326.41913	847.72803	-1247.95374	478.81863	1497.03064	-775.68518	490.31247	1305.26526	-686.09705	536.68854	1163.63538	-672.8399	601.23193	1060.57629	-667.38483	681.69598	956.84991	-702.36987	644.25592	937.52924	-663.82257	700.35779	892.24304	-669.888	549.50067	994.69397	-1088.21667	550.09851	976.28046	-830.28217	340.27216	1035.54382	-1005.63861	334.66034	1034.64001	-891.80408	530.52332	692.16388	-1168.76685	564.39069	493.79376	-1149.17847	565.49799	300.49405	-1161.99158	642.77893	86.00037	-1156.38196	624.42438	48.05719	-1103.15442	798.62433	90.36427	-1181.35742	445.67133	671.17627	-780.22174	418.47672	462.90417	-827.86249	354.08191	284.81598	-826.87793	314.36166	95.14367	-871.68744	276.73032	41.95333	-929.11475	461.37405	39.18498	-847.75549	400.33176	1792.32434	-939.58313	2846.02661	1034.18542	-3357.4021	NaN	NaN	NaN
205	2.04	537.03827	1759.69836	-1013.21765	521.01434	1740.9303	-870.5318	436.34128	1650.32532	-1038.42236	409.43494	1626.47864	-899.28156	390.10104	1527.45459	-956.07727	329.27176	1255.55615	-946.06415	527.00079	1457.21594	-975.71576	574.1861	1282.2395	-965.34784	334.26624	1359.60498	-883.60687	446.48828	1498.02454	-1140.27795	391.93945	1303.66125	-1215.99683	359.98657	1166.354	-1223.04382	341.83185	1036.07642	-1238.60071	376.55841	901.14612	-1217.50696	327.31763	913.49048	-1242.46887	331.92206	846.81042	-1248.37891	486.17856	1496.31702	-776.90271	497.46402	1304.28369	-687.63715	544.86267	1163.0155	-674.09106	610.29364	1060.46313	-668.72998	691.71155	957.49548	-703.62817	654.3316	937.72375	-665.26465	710.75049	892.95258	-671.38928	557.79987	993.75751	-1088.44055	557.03149	975.16486	-830.44354	348.18066	1034.69055	-1007.4101	342.0162	1033.70837	-893.57935	538.93774	691.23566	-1169.70703	573.89868	493.1329	-1149.65442	579.77234	300.15744	-1163.49719	662.77271	87.66478	-1158.60181	644.53027	49.17434	-1105.34167	819.0036	94.12386	-1181.245	450.66449	670.49957	-781.05493	421.89038	462.38629	-828.51929	355.74911	284.91714	-827.1524	314.69482	95.4454	-871.82556	276.80096	42.23532	-929.2511	461.34305	39.14791	-847.71533	408.12863	1791.47778	-941.70203	2845.05615	1034.19202	-3360.1853	NaN	NaN	NaN
